<svg xmlns="http://www.w3.org/2000/svg" width="80" height="30" viewBox="0 0 80 30" fill="none">
<style>.t{font:400 12px -apple-system,BlinkMacSystemFont,"Segoe UI",Helvetica,Arial,sans-serif;fill:#7d8590}.p{fill:#8b949e;fill-opacity:0.07;stroke:#8b949e;stroke-opacity:0.4;stroke-width:1}</style>
<rect class="p" x="0.5" y="0.5" width="77" height="23" rx="11.5"/>
<g transform="translate(10.0000 5.0000) scale(0.10938)" fill="#7d8590"><path d="M64 0A64 64 0 0 0 0 64a64 64 0 0 0 64 64 64 64 0 0 0 35.508-10.838L47.014 49.34v40.238H38.4V38.4h10.768l57.125 73.584A64 64 0 0 0 128 64 64 64 0 0 0 64 0Zm17.777 38.4h8.534v48.776L81.777 75.97Zm24.18 73.92-.111.096a64 64 0 0 0 .111-.096z"/></g><text class="t" x="30" y="16.3">Next.js</text>
</svg>
